<?xml version="1.0" encoding="UTF-8"?>
<svg version="1.1" xmlns="http://www.w3.org/2000/svg" width="30" height="30">
<path d="M0 0 C2.5625 1.75 2.5625 1.75 4 4 C4 5.32 4 6.64 4 8 C4.928125 8.268125 5.85625 8.53625 6.8125 8.8125 C9.88760058 9.95812571 11.04343077 10.4909877 13 13 C13.85041334 17.16013014 13.6425894 20.85451454 11.5625 24.5625 C7.74244826 26.70545586 4.27678974 26.77831284 0 26 C-3.01934244 23.96194385 -3.79605368 22.74780317 -4.75 19.25 C-4.87375 18.13625 -4.87375 18.13625 -5 17 C-5.763125 16.896875 -6.52625 16.79375 -7.3125 16.6875 C-10.28349737 15.92747742 -11.1405689 15.37237761 -13 13 C-13.85041334 8.83986986 -13.6425894 5.14548546 -11.5625 1.4375 C-7.74551341 -0.70373638 -4.2735021 -0.78412883 0 0 Z M-7 6 C-7.33 6.99 -7.66 7.98 -8 9 C-7.34 9.66 -6.68 10.32 -6 11 C-6 9.35 -6 7.7 -6 6 C-6.33 6 -6.66 6 -7 6 Z M4 12 C5 14 5 14 5 14 Z M2 14 C3 17 3 17 3 17 Z M6 18 C7 21 7 21 7 21 Z M4 21 C5 23 5 23 5 23 Z " fill="#000000" transform="translate(15,2)"/>
<path d="M0 0 C0.99 0.66 1.98 1.32 3 2 C2.34 3.32 1.68 4.64 1 6 C0.67 5.34 0.34 4.68 0 4 C-0.99 4 -1.98 4 -3 4 C-3 3.34 -3 2.68 -3 2 C-2.01 2 -1.02 2 0 2 C0 1.34 0 0.68 0 0 Z " fill="#000000" transform="translate(6,21)"/>
<path d="M0 0 C0.33 0.66 0.66 1.32 1 2 C1.99 2 2.98 2 4 2 C4 2.66 4 3.32 4 4 C3.01 4 2.02 4 1 4 C0.67 4.66 0.34 5.32 0 6 C-0.66 4.68 -1.32 3.36 -2 2 C-1.34 1.34 -0.68 0.68 0 0 Z " fill="#000000" transform="translate(23,2)"/>
</svg>
